<?xml version="1.0" standalone="no"?>
<!DOCTYPE svg PUBLIC "-//W3C//DTD SVG 20010904//EN"
 "http://www.w3.org/TR/2001/REC-SVG-20010904/DTD/svg10.dtd">
<svg version="1.0" xmlns="http://www.w3.org/2000/svg"
 width="204.000000pt" height="204.000000pt" viewBox="0 0 204.000000 204.000000"
 preserveAspectRatio="xMidYMid meet">
<g transform="translate(0.000000,204.000000) scale(0.100000,-0.100000)"
fill="#000000" stroke="currentColor">
<path d="M988 1935 c-2 -2 -28 -5 -58 -8 -109 -12 -189 -31 -269 -64 -20 -9
-38 -15 -41 -15 -9 1 -130 -74 -174 -108 -53 -41 -170 -168 -210 -229 -42 -63
-104 -183 -110 -213 -2 -7 -6 -20 -9 -28 -52 -134 -64 -320 -32 -495 18 -94
75 -228 142 -328 50 -75 181 -217 201 -217 7 0 12 -3 12 -8 0 -4 18 -18 40
-32 22 -14 40 -29 40 -34 0 -5 3 -7 6 -3 3 3 23 -4 43 -17 96 -59 207 -69 296
-26 51 24 105 70 105 89 0 5 8 15 18 20 9 6 14 11 10 11 -4 0 -1 15 7 33 19
46 12 144 -15 198 -25 50 -87 119 -107 119 -7 0 -13 5 -13 12 0 6 -3 8 -7 5
-11 -11 -75 33 -134 93 -53 53 -110 149 -116 194 -8 56 -9 137 -2 141 4 3 6
13 5 23 -2 9 3 32 11 49 7 18 13 34 12 35 -10 16 103 173 115 161 3 -4 6 -1 6
5 0 13 93 66 135 77 53 14 59 15 120 16 66 1 170 -29 216 -62 15 -10 30 -19
34 -19 7 0 52 -45 85 -86 19 -24 57 -103 62 -129 1 -11 9 -26 16 -33 7 -8 10
-18 6 -23 -3 -5 19 -33 48 -62 88 -88 213 -111 316 -58 48 24 94 65 85 74 -3
4 -2 7 4 7 24 0 56 104 55 180 0 44 -47 179 -84 245 -16 28 -34 60 -40 73 -6
12 -15 22 -20 22 -4 0 -8 4 -8 10 0 13 -33 51 -109 127 -132 130 -317 229
-481 258 -14 2 -39 7 -56 10 -32 6 -152 13 -156 10z"/>
<path d="M1410 594 c-82 -24 -155 -92 -179 -165 -13 -40 -21 -126 -13 -134 3
-3 7 -12 8 -19 9 -65 96 -155 172 -180 58 -19 156 -15 205 9 39 18 117 88 117
105 0 5 5 10 10 10 6 0 9 3 9 8 -1 4 0 9 1 12 17 45 18 149 2 190 -18 44 -73
119 -88 120 -6 0 -17 6 -23 13 -29 35 -150 52 -221 31z"/>
</g>
</svg>
